Coordinates
version=1
nRows=12
nColumns=46
inDegrees=yes

Units are S.I. units (second, meters, Newtons, ...)
Angles are in degrees.

endheader
time	pelvis_tilt	pelvis_list	pelvis_rotation	pelvis_tx	pelvis_ty	pelvis_tz	bb_angle	bb_tx	bb_ty	bb_tz	hip_flexion_r	hip_adduction_r	hip_rotation_r	knee_angle_r	knee_angle_r_beta	ankle_angle_r	subtalar_angle_r	mtp_angle_r	crank_angle_r	hip_flexion_l	hip_adduction_l	hip_rotation_l	knee_angle_l	knee_angle_l_beta	ankle_angle_l	subtalar_angle_l	mtp_angle_l	crank_angle_l	lumbar_extension	lumbar_bending	lumbar_rotation	arm_flex_r	arm_add_r	arm_rot_r	elbow_flex_r	pro_sup_r	wrist_flex_r	wrist_dev_r	arm_flex_l	arm_add_l	arm_rot_l	elbow_flex_l	pro_sup_l	wrist_flex_l	wrist_dev_l
      5.00500000	    -17.46505143	     -3.34780388	      5.93463745	      0.33222303	      1.12958348	     -0.26287920	      0.00000000	      0.50000000	      0.00000000	      0.25000000	     54.68074661	     -5.66626769	     -2.38588604	     95.82073051	      1.67238724	    -19.14215130	    -15.38120447	      0.00000000	      0.00000000	     51.14432056	     -0.58760595	      8.44794869	     54.17110511	      0.94546414	     -2.52962363	    -10.81766041	      0.00000000	      0.00000000	    -65.34567328	      2.84055514	     -4.02855026	     54.87176821	    -15.57103102	     18.23537897	     70.57479077	     50.99236058	      0.00000000	      0.00000000	     52.38912588	    -18.25286706	     20.29689203	     84.13917067	     50.13705006	      0.00000000	      0.00000000
      5.01000000	    -17.43998667	     -4.04590829	      5.70224640	      0.33232455	      1.12866901	     -0.26314883	      0.00000000	      0.50000000	      0.00000000	      0.25000000	     55.94473625	     -5.15677800	     -2.61961843	     97.92278382	      1.70907499	    -17.59392504	    -15.46054979	      0.00000000	      0.00000000	     49.72004558	     -1.46132963	      8.69164972	     52.04972010	      0.90843899	     -3.46878802	    -10.50212986	      0.00000000	      0.00000000	    -65.18891382	      3.35429697	     -3.37684148	     55.01208922	    -15.49368274	     18.32658972	     70.60833917	     51.00312857	      0.00000000	      0.00000000	     52.04731896	    -18.41525342	     20.21627681	     84.08973068	     50.12068870	      0.00000000	      0.00000000
      5.01500000	    -17.47248641	     -4.47933725	      5.46413419	      0.33210011	      1.12775427	     -0.26358530	      0.00000000	      0.50000000	      0.00000000	      0.25000000	     57.34735917	     -4.96688564	     -2.59093876	    100.05402146	      1.74627210	    -15.32170632	    -14.11597992	      0.00000000	      0.00000000	     48.28360926	     -2.11467336	      8.60086338	     49.85673600	      0.87016420	     -4.84901897	    -10.93819474	      0.00000000	      0.00000000	    -65.07161755	      3.75421203	     -2.99426541	     55.17207241	    -15.32347907	     18.67604604	     70.70076451	     51.07580131	      0.00000000	      0.00000000	     51.67363336	    -18.66606066	     19.87310981	     84.13370739	     50.10525598	      0.00000000	      0.00000000
      5.02000000	    -17.56281206	     -5.15966261	      5.21635463	      0.33182522	      1.12681519	     -0.26391815	      0.00000000	      0.50000000	      0.00000000	      0.25000000	     58.81048689	     -4.59745062	     -2.93648719	    101.93908243	      1.77917262	    -14.24465792	    -14.33125105	      0.00000000	      0.00000000	     46.98951180	     -3.00170168	      8.69610376	     47.84279835	      0.83501435	     -5.53343904	    -10.58088907	      0.00000000	      0.00000000	    -64.87941879	      4.33928624	     -2.24516125	     55.39049524	    -15.21192702	     18.79716329	     70.75253213	     51.09740290	      0.00000000	      0.00000000	     51.45477437	    -18.86814684	     19.76810421	     84.12460342	     50.09790437	      0.00000000	      0.00000000
      5.02500000	    -17.65027782	     -5.46146375	      4.83953361	      0.33182566	      1.12619426	     -0.26397989	      0.00000000	      0.50000000	      0.00000000	      0.25000000	     60.24522142	     -4.42555209	     -2.83173796	    103.79868837	      1.81162887	    -12.08665900	    -13.14240594	      0.00000000	      0.00000000	     45.49245765	     -3.71379099	      8.27975121	     45.61706915	      0.79616805	     -6.96153667	    -10.86839344	      0.00000000	      0.00000000	    -64.73364371	      4.50360561	     -2.07655642	     55.66729134	    -15.21563104	     19.50250190	     70.82448852	     51.20130035	      0.00000000	      0.00000000	     50.97161806	    -19.18224611	     19.33477320	     84.23546888	     50.08736781	      0.00000000	      0.00000000
      5.03000000	    -17.83380133	     -6.04226955	      4.52902824	      0.33163507	      1.12544867	     -0.26418896	      0.00000000	      0.50000000	      0.00000000	      0.25000000	     61.78364248	     -4.14892297	     -3.14831652	    105.43718432	      1.84022602	    -10.93858539	    -13.38113908	      0.00000000	      0.00000000	     44.22255730	     -4.58511919	      8.17460808	     43.62402260	      0.76138283	     -7.70726960	    -10.45743453	      0.00000000	      0.00000000	    -64.51130622	      4.95800104	     -1.47783519	     55.93021396	    -15.15648089	     19.69735706	     70.87761636	     51.23170746	      0.00000000	      0.00000000	     50.68620053	    -19.40084239	     19.20162786	     84.22418695	     50.07865672	      0.00000000	      0.00000000
      5.03500000	    -17.95561734	     -6.19308451	      4.01691630	      0.33163850	      1.12495692	     -0.26417013	      0.00000000	      0.50000000	      0.00000000	      0.25000000	     63.31327167	     -4.03174674	     -2.93968647	    107.04873522	      1.86835289	     -9.37541248	    -12.50661982	      0.00000000	      0.00000000	     42.73130965	     -5.27079103	      7.47804537	     41.58656721	      0.72582252	     -8.81186423	    -10.40005844	      0.00000000	      0.00000000	    -64.37759030	      5.02162292	     -1.31390996	     56.28645799	    -15.15910753	     20.56586497	     70.85746832	     51.33516932	      0.00000000	      0.00000000	     50.25492138	    -19.75957731	     18.70003702	     84.37204661	     50.06847454	      0.00000000	      0.00000000
      5.04000000	    -18.13001660	     -6.51110595	      3.56541772	      0.33164030	      1.12453388	     -0.26411414	      0.00000000	      0.50000000	      0.00000000	      0.25000000	     64.84601127	     -3.87554853	     -3.01693080	    108.43440090	      1.89253732	     -8.27978741	    -12.22149761	      0.00000000	      0.00000000	     41.42444233	     -6.07212884	      6.82066479	     39.75444503	      0.69384596	     -9.59315705	     -9.85478884	      0.00000000	      0.00000000	    -64.25940632	      5.26537361	     -0.91912147	     56.55748128	    -15.14868469	     21.14373758	     70.80528257	     51.39821582	      0.00000000	      0.00000000	     49.83726840	    -20.07170694	     18.36335981	     84.47122951	     50.06482941	      0.00000000	      0.00000000
      5.04500000	    -18.26394998	     -6.80967148	      3.11959496	      0.33160596	      1.12421395	     -0.26407704	      0.00000000	      0.50000000	      0.00000000	      0.25000000	     66.33417135	     -3.72524958	     -3.10511251	    109.71544712	      1.91489579	     -7.19439919	    -11.98349864	      0.00000000	      0.00000000	     40.07990701	     -6.80535894	      6.31569835	     38.04921372	      0.66408406	    -10.30539686	     -9.38933870	      0.00000000	      0.00000000	    -64.14178836	      5.51314847	     -0.85823562	     57.42012773	    -15.02813256	     22.53188900	     70.24770399	     51.50600583	      0.00000000	      0.00000000	     49.10412065	    -20.66074051	     17.47193351	     85.12276776	     50.12864871	      0.00000000	      0.00000000
      5.05000000	    -18.48846489	     -7.15671325	      2.72928422	      0.33151038	      1.12391336	     -0.26404957	      0.00000000	      0.50000000	      0.00000000	      0.25000000	     67.89260293	     -3.64974377	     -3.33820524	    110.84243284	      1.93456540	     -6.15909608	    -12.11396901	      0.00000000	      0.00000000	     38.92967878	     -7.54569874	      5.83026072	     36.50546599	      0.63714058	    -10.90092174	     -8.77922924	      0.00000000	      0.00000000	    -63.98284458	      5.80503938	     -0.34828704	     57.69003256	    -15.00099235	     22.58717517	     70.32427625	     51.52395081	      0.00000000	      0.00000000	     48.90980834	    -20.88170524	     17.36590511	     85.03832675	     50.10974667	      0.00000000	      0.00000000
      5.05500000	    -18.52181953	     -7.14874388	      2.04649126	      0.33183421	      1.12415628	     -0.26355643	      0.00000000	      0.50000000	      0.00000000	      0.25000000	     69.27261390	     -3.42018643	     -3.05541073	    111.88169321	      1.95270392	     -5.12264268	    -11.39355327	      0.00000000	      0.00000000	     37.42404901	     -8.23057144	      4.59277555	     34.96751169	      0.61029821	    -11.57565207	     -8.09205176	      0.00000000	      0.00000000	    -64.04164026	      5.61832071	     -0.05550711	     57.90718140	    -14.99668485	     23.03217289	     70.40072501	     51.59224571	      0.00000000	      0.00000000	     48.66719615	    -21.19024048	     17.06041043	     84.93502433	     50.07511955	      0.00000000	      0.00000000
      5.06000000	    -18.72203320	     -7.39634512	      1.67949755	      0.33181898	      1.12416316	     -0.26354755	      0.00000000	      0.50000000	      0.00000000	      0.25000000	     70.75697044	     -3.43446167	     -3.24797299	    112.70307998	      1.96703982	     -4.57543212	    -11.31931365	      0.00000000	      0.00000000	     36.31196159	     -8.83116285	      4.03745271	     33.64211377	      0.58716565	    -12.16015926	     -7.47585789	      0.00000000	      0.00000000	    -63.96015860	      5.92835995	      0.38698672	     58.25095719	    -15.00027319	     23.18059100	     70.49900372	     51.62282740	      0.00000000	      0.00000000	     48.44600103	    -21.42387086	     16.90406222	     84.84973115	     50.05237600	      0.00000000	      0.00000000
